<?xml version="1.0" encoding="UTF-8"?>
<svg width="22px" height="20px" viewBox="0 0 22 20" version="1.1" xmlns="http://www.w3.org/2000/svg" xmlns:xlink="http://www.w3.org/1999/xlink">
    <title>Path 2 Copy</title>
    <g id="Symbols" stroke="none" stroke-width="1" fill="none" fill-rule="evenodd" stroke-linejoin="round">
        <g id="home_selected-copy" transform="translate(-1.000000, 0.000000)" stroke="#1EBEAE" stroke-width="2">
            <path d="M12,1 L18.922,7.23 L18.9230769,7.23078519 L18.923,7.231 L22,10.0000231 L18.923,10 L18.9230769,17.0000461 C18.9230769,18.1046156 18.0276464,19.0000461 16.9230769,19.0000461 L14.2962311,19.0007245 L14.3048042,18.8857516 L14.3048042,18.8857516 L14.3076923,18.7692822 L14.3076923,14.3846438 C14.3076923,13.1101405 13.2745033,12.0769514 12,12.0769514 C10.778601,12.0769514 9.77882573,13.0258351 9.6976316,14.226645 L9.69230769,14.3846438 L9.69230769,18.7692822 C9.69230769,18.8473969 9.69618887,18.9246051 9.70376891,19.0007245 L7.07692308,19.0000461 C5.97235358,19.0000461 5.07692308,18.1046156 5.07692308,17.0000461 L5.076,10 L2,10.0000231 L5.076,7.232 L5.07692308,7.23078519 L5.078,7.23 L12,1 Z" id="Path-2-Copy"></path>
        </g>
    </g>
</svg>